PathFileType  4	(X/Y/Z) C:\Users\antoi\Documents\MyRepositories\mobilecap\ResultsAnalysis
DataRate	CameraRate	NumFrames	NumMarkers	Units	OrigDataRate	OrigDataStartFrame	OrigNumFrames
100.0	100.0	6	51	mm	100.0	170	271
Frame#	Time	r_knee			r_shank_antsup			r_ankle			r_calc			r_5meta			r_toe			L_knee			L_shank_antsup			L_ankle			L_calc			L_5meta			L_toe			r_sh2			r_sh3			r_sh4			L_sh2			L_sh3			r_thigh1			r_thigh2			r_thigh3			r_thigh4			r_thigh5			L_thigh1			L_thigh2			L_thigh3			L_thigh4			r.ASIS			r.PSIS			L.ASIS			L.PSIS			C7			R_Shoulder			L_Shoulder			R_Sternum			L_Sternum			R_humerus			R_elbow_med			R_elbow_lat			R_forearm			R_wrist_radius			R_wrist_ulna			L_humerus			L_elbow_med			L_elbow_lat			L_forearm			L_wrist_radius			L_wrist_ulna			R_HJC			L_HJC			R_HJC_reg			L_HJC_reg			
		X1	Y1	Z1	X2	Y2	Z2	X3	Y3	Z3	X4	Y4	Z4	X5	Y5	Z5	X6	Y6	Z6	X7	Y7	Z7	X8	Y8	Z8	X9	Y9	Z9	X10	Y10	Z10	X11	Y11	Z11	X12	Y12	Z12	X13	Y13	Z13	X14	Y14	Z14	X15	Y15	Z15	X16	Y16	Z16	X17	Y17	Z17	X18	Y18	Z18	X19	Y19	Z19	X20	Y20	Z20	X21	Y21	Z21	X22	Y22	Z22	X23	Y23	Z23	X24	Y24	Z24	X25	Y25	Z25	X26	Y26	Z26	X27	Y27	Z27	X28	Y28	Z28	X29	Y29	Z29	X30	Y30	Z30	X31	Y31	Z31	X32	Y32	Z32	X33	Y33	Z33	X34	Y34	Z34	X35	Y35	Z35	X36	Y36	Z36	X37	Y37	Z37	X38	Y38	Z38	X39	Y39	Z39	X40	Y40	Z40	X41	Y41	Z41	X42	Y42	Z42	X43	Y43	Z43	X44	Y44	Z44	X45	Y45	Z45	X46	Y46	Z46	X47	Y47	Z47	X48	Y48	Z48	X49	Y49	Z49	X50	Y50	Z50	X51	Y51	Z51	

170	1.69000000	-41.79545	419.62003	-428.95234	-6.32809	348.00414	-431.03067	-240.48927	115.55924	-429.06100	-305.77367	98.12997	-475.31133	-110.85473	53.52640	-442.52716	-159.24286	46.93591	-392.58393	-25.34793	411.84561	-777.94453	-6.50462	317.20634	-763.98591	-219.68154	107.72493	-789.90237	-292.99588	77.82274	-748.00442	-137.72524	45.14499	-820.49442	-83.38676	53.52145	-768.01870	-74.80766	258.06617	-421.24091	-59.15859	396.43760	-399.22456	-135.69239	304.34132	-392.45454	-63.99759	369.55045	-808.06348	-127.39388	265.61485	-823.23341	-234.83633	571.84683	-411.50702	-130.16468	525.31158	-413.04846	-140.81544	454.81958	-412.38223	-284.63290	471.57832	-421.18149	-177.45817	424.46926	-437.66064	-239.46972	579.10630	-809.93726	-121.69038	516.96049	-790.90141	-300.85029	484.30047	-809.98600	-178.97193	419.42253	-773.49575	-242.50755	620.13812	-504.14957	-411.22111	739.47790	-581.46328	-247.64327	616.71471	-725.24950	-414.18938	736.09016	-662.49622	5.04615	951.81452	-631.54113	27.25385	880.62895	-489.13403	27.60626	872.42811	-767.08187	53.36627	818.07599	-602.09143	49.01642	811.81669	-633.46846	-35.26034	785.24779	-427.46521	-251.54646	727.11155	-386.68689	-209.65869	704.96783	-339.34821	-201.24070	610.77107	-332.00065	-238.08904	472.61680	-329.02789	-267.45764	482.08432	-307.15586	-22.90556	789.55422	-841.24711	-215.16542	666.76351	-871.08116	-165.43005	666.25755	-921.35007	-153.50580	556.99617	-930.53222	-164.76084	431.85652	-928.63587	-198.88167	436.88696	-950.27238	-355.15749	580.53145	-509.11562	-356.15106	576.56979	-716.58222	-335.67961	595.00650	-529.98571	-341.01815	588.91228	-675.74531	
171	1.70000000	-42.22431	419.38806	-427.19375	-6.65680	347.67324	-429.03092	-240.71735	115.29631	-428.10120	-305.92598	97.91746	-474.74099	-111.07161	53.50352	-442.30300	-159.32731	46.63567	-392.33134	-25.22045	412.11422	-779.56011	-6.10661	317.52756	-765.03417	-219.42053	108.02098	-790.16517	-292.79044	78.40128	-748.07426	-137.59988	45.14246	-820.74196	-83.34324	53.47653	-768.05868	-75.38701	257.49683	-420.19101	-59.15251	396.46313	-397.39614	-136.40749	304.07874	-390.35248	-63.65964	369.55401	-809.39743	-126.67015	265.75302	-824.31955	-234.35497	572.16020	-409.04377	-129.71850	524.74274	-411.51644	-141.51754	455.17808	-410.50895	-285.11634	471.06906	-420.81371	-177.40847	424.61555	-435.89766	-241.07311	578.97016	-812.73659	-122.10029	517.23553	-792.34156	-301.35021	483.28795	-808.79048	-177.88936	419.14479	-774.38886	-242.08607	620.40367	-503.96152	-408.98238	740.90311	-582.11633	-246.68701	616.63647	-725.62001	-412.02389	737.17869	-663.24563	9.76884	947.46881	-631.96557	30.43741	875.93641	-489.80572	31.65934	867.22399	-767.10183	56.51040	813.16317	-602.76755	52.33959	807.05753	-633.69709	-28.57991	778.12688	-429.36917	-239.53101	709.03155	-382.57604	-194.79640	687.70391	-337.52522	-181.80546	593.88034	-332.89538	-211.49729	454.13971	-333.28306	-240.43496	461.35329	-309.80178	-16.15016	783.26013	-841.56798	-201.72775	650.84017	-871.76399	-151.69352	652.87212	-922.14729	-131.66699	544.11607	-928.13155	-133.10094	419.15968	-922.39650	-167.03364	420.79189	-944.48142	-354.82327	581.66418	-509.37449	-355.38643	577.29235	-716.83484	-335.20700	596.30039	-529.75212	-340.68130	589.59535	-675.84325	
172	1.71000000	-42.48059	419.48591	-424.81677	-6.94801	347.44048	-427.03802	-240.92485	115.06682	-427.67486	-306.31271	97.63056	-475.02251	-111.20658	53.54350	-442.13568	-159.50837	46.46235	-392.24538	-24.97616	412.68685	-780.73709	-5.79452	318.05884	-765.71531	-219.07940	108.49811	-790.38413	-292.43822	79.15931	-748.22811	-137.43706	45.13150	-820.94778	-83.27199	53.45832	-768.13287	-76.25850	256.37059	-420.05892	-60.49667	395.33394	-396.95011	-137.96410	303.71746	-390.26728	-63.40510	370.11435	-810.25863	-126.18760	266.03696	-825.29124	-234.70711	571.66204	-406.93435	-130.09530	524.99585	-410.12778	-142.05548	455.93019	-408.30201	-285.34463	471.64276	-420.40598	-177.50529	425.18881	-434.26316	-241.93241	579.27948	-814.31950	-121.88660	518.17354	-793.10584	-301.49014	482.99432	-807.85627	-177.11923	419.43832	-774.54308	-241.10587	620.86220	-503.77591	-406.90904	742.55065	-582.75365	-245.96760	617.45344	-726.29332	-410.00950	738.57771	-664.05541	13.75847	943.93406	-632.49544	33.10926	872.44791	-490.27325	35.16727	863.03521	-767.05204	59.09758	809.37479	-603.20744	55.20443	803.47817	-633.96525	-22.12741	772.53358	-430.14211	-227.43234	692.07452	-379.58256	-179.85358	672.27265	-336.37104	-161.93375	579.06895	-334.05236	-184.24044	438.13780	-337.24948	-212.69509	442.95821	-312.91265	-9.79165	778.00228	-841.70372	-188.18828	636.36428	-872.57184	-138.16176	640.45513	-922.48072	-110.06229	533.30558	-925.40492	-102.02349	409.16398	-915.19110	-135.59198	407.39936	-937.56546	-354.15052	582.97311	-509.84956	-354.55875	578.53635	-717.31144	-334.60047	597.79058	-529.60704	-340.19154	590.62555	-676.23667	
173	1.72000000	-42.69973	419.71442	-422.69570	-7.21928	347.60167	-425.07636	-240.95287	115.01244	-427.75048	-306.46258	97.73966	-475.48762	-111.19517	53.57262	-442.05234	-159.64140	46.40153	-392.30965	-24.67825	413.54860	-781.25236	-5.83729	318.47073	-766.03885	-218.68249	109.19722	-790.40866	-291.98084	80.13689	-748.40503	-137.24969	45.23577	-821.02718	-83.10867	53.51576	-768.23646	-76.90579	255.71594	-419.66268	-62.51856	393.83857	-397.15626	-139.50293	303.87148	-390.80184	-62.80309	371.40145	-810.69618	-126.20254	267.14941	-826.54846	-235.04745	571.88471	-406.25862	-131.34407	525.97018	-408.77595	-142.55139	456.63166	-407.46592	-285.45660	473.00096	-419.92988	-178.07345	426.16167	-433.14345	-241.70734	579.43851	-814.19441	-121.20755	519.26680	-793.24871	-301.38998	483.48674	-807.40242	-177.29372	419.98520	-774.07680	-240.01971	621.33103	-503.82342	-404.88965	744.36866	-583.23910	-245.89952	619.43534	-728.43833	-408.14846	740.15271	-664.66869	17.06796	941.18701	-633.22324	35.56586	869.87788	-490.75070	38.05195	859.95165	-767.10233	61.32771	806.74317	-603.38913	57.64613	800.96181	-634.35023	-15.54846	768.38104	-430.00711	-215.10670	676.04079	-378.08367	-165.25801	659.13369	-335.66426	-142.03643	566.72074	-335.48300	-156.88920	424.99962	-341.30514	-184.71165	427.70815	-316.22278	-3.75289	773.94175	-841.82498	-174.71742	623.46644	-873.80292	-124.69307	629.12709	-922.16916	-88.88091	524.50275	-922.33878	-71.69141	401.39725	-907.37406	-105.00887	396.78365	-929.99431	-353.23336	584.13725	-511.02727	-354.09184	580.58380	-718.50164	-334.30579	599.57363	-529.77110	-340.23157	591.90865	-677.75623	
174	1.73000000	-43.06934	419.89560	-421.74658	-7.45383	348.13880	-423.33167	-240.71208	115.31375	-427.96539	-306.15216	98.37784	-475.82445	-111.06186	53.50941	-442.12844	-159.61585	46.50179	-392.44731	-24.61852	414.45304	-780.85319	-5.59206	319.55155	-765.58366	-218.30318	109.95535	-790.21249	-291.53040	81.27658	-748.44137	-137.04684	45.48036	-821.00060	-82.92543	53.55974	-768.32650	-76.55555	257.21030	-417.55925	-63.24225	393.90248	-395.94190	-139.88915	304.41913	-389.41466	-61.70931	372.96554	-810.61564	-126.38013	268.82781	-827.35423	-234.67667	573.27573	-406.26613	-131.99434	527.80633	-407.95612	-142.77899	457.58157	-407.17688	-285.50999	474.69232	-419.61460	-178.67034	427.39972	-432.46707	-240.75589	580.08612	-813.57771	-120.62494	519.87292	-793.24389	-300.95051	484.65538	-807.19911	-177.88930	421.03461	-774.13520	-238.69925	621.28364	-504.92341	-402.97497	746.30018	-583.54196	-246.01059	621.71452	-731.11319	-406.38451	741.87141	-665.02161	19.84882	939.28037	-634.07268	37.97669	867.88892	-491.21682	40.29117	857.92210	-767.35864	63.39040	805.14305	-603.67752	59.66549	799.28963	-634.69717	-9.05412	765.41409	-429.62053	-202.45388	661.21193	-377.75140	-151.17931	648.10075	-335.11846	-122.69715	556.72644	-337.06188	-130.05481	414.96671	-345.46062	-157.10811	415.56728	-319.50223	1.83678	771.20825	-841.96892	-161.25205	611.95218	-874.93051	-111.04031	619.16142	-921.29631	-68.28045	517.38878	-918.96470	-42.40222	396.04473	-899.42594	-75.28486	388.97481	-922.65201	-352.12942	584.91958	-512.78501	-353.95928	583.03604	-720.27163	-333.95817	601.43355	-530.91697	-340.19721	593.33234	-679.93404	
175	1.74000000	-43.31298	420.64004	-421.23731	-7.64423	348.91117	-422.00735	-240.22549	115.96297	-428.06301	-305.44993	99.32128	-476.16484	-110.85003	53.52117	-442.18573	-159.44674	46.73188	-392.52024	-24.56942	415.30227	-779.57808	-4.28795	322.02678	-764.14967	-217.91246	110.66921	-789.79586	-291.12785	82.31725	-748.11983	-136.89439	45.74784	-820.86405	-82.90211	53.39251	-768.32181	-75.46094	260.27684	-414.84797	-62.40775	395.60100	-393.43567	-139.10420	304.84180	-386.84427	-61.01178	374.18402	-809.99634	-126.25766	270.07432	-826.78596	-234.23180	575.27621	-405.97482	-131.27845	530.06648	-407.94699	-142.34663	459.35425	-405.31280	-285.51194	476.65839	-419.33712	-178.63991	428.70675	-432.26996	-239.42991	581.67307	-813.33378	-120.04814	520.19812	-793.05920	-300.20286	486.49402	-807.32750	-178.14120	422.86232	-774.96858	-236.98427	620.96415	-506.85953	-401.23949	748.35816	-583.59999	-245.54923	623.48600	-732.54467	-404.67069	743.82922	-665.11406	22.23812	938.31970	-634.75619	40.31942	866.46288	-491.49671	41.96331	856.94224	-767.86388	65.26127	804.36519	-604.12809	61.26182	798.35608	-634.99645	-2.84213	763.73050	-428.85045	-189.70368	648.27822	-377.88740	-137.60329	638.62116	-334.70989	-104.21128	548.63416	-338.75661	-103.93945	407.82623	-349.17336	-130.31141	405.85434	-322.98975	6.91074	769.70130	-842.11213	-147.44076	601.50949	-874.82622	-97.15126	610.52726	-919.92315	-48.20531	511.78950	-915.27928	-14.56028	393.30056	-891.49028	-46.43470	383.42625	-915.43593	-350.89331	585.66705	-514.27077	-353.68868	585.36283	-721.75897	-333.02027	603.21819	-532.74943	-339.28177	594.95642	-681.45850	
